<?xml version="1.0" encoding="UTF-8" standalone="no"?>
<!-- Created with Inkscape (http://www.inkscape.org/) -->

<svg
   xmlns:dc="http://purl.org/dc/elements/1.1/"
   xmlns:cc="http://creativecommons.org/ns#"
   xmlns:rdf="http://www.w3.org/1999/02/22-rdf-syntax-ns#"
   xmlns:svg="http://www.w3.org/2000/svg"
   xmlns="http://www.w3.org/2000/svg"
   xmlns:xlink="http://www.w3.org/1999/xlink"
   xmlns:sodipodi="http://sodipodi.sourceforge.net/DTD/sodipodi-0.dtd"
   xmlns:inkscape="http://www.inkscape.org/namespaces/inkscape"
   width="128"
   height="128"
   viewBox="0 0 128 128"
   id="svg7136"
   version="1.1"
   inkscape:version="0.91 r"
   sodipodi:docname="comet.svg"
   inkscape:export-filename="/home/pmcolt/Projects/dit/assets/comet.png"
   inkscape:export-xdpi="90.18"
   inkscape:export-ydpi="90.18">
  <defs
     id="defs7138">
    <linearGradient
       inkscape:collect="always"
       id="linearGradient7721">
      <stop
         style="stop-color:#ddd3d0;stop-opacity:1"
         offset="0"
         id="stop7723" />
      <stop
         style="stop-color:#f2f2f2;stop-opacity:0;"
         offset="1"
         id="stop7725" />
    </linearGradient>
    <linearGradient
       inkscape:collect="always"
       id="linearGradient7713">
      <stop
         style="stop-color:#f2f2f2;stop-opacity:1;"
         offset="0"
         id="stop7715" />
      <stop
         style="stop-color:#cccccc;stop-opacity:1"
         offset="1"
         id="stop7717" />
    </linearGradient>
    <radialGradient
       inkscape:collect="always"
       xlink:href="#linearGradient7713"
       id="radialGradient7719"
       cx="100.5"
       cy="949.86218"
       fx="100.5"
       fy="949.86218"
       r="20.5"
       gradientTransform="matrix(1.7382704,-1.1669059,0.63489667,0.94576795,-677.26052,168.78699)"
       gradientUnits="userSpaceOnUse" />
    <linearGradient
       inkscape:collect="always"
       xlink:href="#linearGradient7721"
       id="linearGradient7727"
       x1="20.243629"
       y1="1029.5763"
       x2="100.54182"
       y2="957.57623"
       gradientUnits="userSpaceOnUse" />
    <radialGradient
       inkscape:collect="always"
       xlink:href="#linearGradient7713"
       id="radialGradient7739"
       cx="100.375"
       cy="948.98352"
       fx="100.375"
       fy="948.98352"
       r="24.149429"
       gradientTransform="matrix(1,0,0,0.95844159,0,39.438247)"
       gradientUnits="userSpaceOnUse" />
  </defs>
  <sodipodi:namedview
     id="base"
     pagecolor="#ffffff"
     bordercolor="#666666"
     borderopacity="1.0"
     inkscape:pageopacity="0.0"
     inkscape:pageshadow="2"
     inkscape:zoom="4"
     inkscape:cx="95.610474"
     inkscape:cy="64.788279"
     inkscape:document-units="px"
     inkscape:current-layer="layer1"
     showgrid="false"
     units="px"
     inkscape:window-width="1366"
     inkscape:window-height="716"
     inkscape:window-x="0"
     inkscape:window-y="0"
     inkscape:window-maximized="1" />
  <metadata
     id="metadata7141">
    <rdf:RDF>
      <cc:Work
         rdf:about="">
        <dc:format>image/svg+xml</dc:format>
        <dc:type
           rdf:resource="http://purl.org/dc/dcmitype/StillImage" />
        <dc:title></dc:title>
      </cc:Work>
    </rdf:RDF>
  </metadata>
  <g
     inkscape:label="Layer 1"
     inkscape:groupmode="layer"
     id="layer1"
     transform="translate(0,-924.36216)">
    <path
       style="fill:url(#linearGradient7727);fill-rule:evenodd;stroke:#000000;stroke-width:1.55907893px;stroke-linecap:butt;stroke-linejoin:miter;stroke-opacity:1;fill-opacity:1"
       d="m 86.262151,953.19734 c -0.150285,0.32191 -2.287447,-0.19408 -2.735635,0 -0.152926,0.0662 -0.197774,0.35063 -0.341954,0.44427 -0.101957,0.0663 -0.22797,0 -0.341955,0 -0.355606,0 -1.782739,-0.0874 -2.051725,0 -0.247268,0.0803 -0.433982,0.37935 -0.683909,0.44428 -0.335314,0.0871 -0.690549,-0.0871 -1.025863,0 -0.249927,0.0649 -0.433981,0.37933 -0.68391,0.44428 -0.335313,0.087 -0.68856,-0.073 -1.025862,0 -0.355548,0.077 -0.670315,0.36728 -1.025863,0.44426 -0.562168,0.12173 -1.150916,-0.14518 -1.709771,0 -0.353453,0.0919 -0.672411,0.35243 -1.025863,0.44427 -0.223543,0.0581 -0.462747,-0.0718 -0.683909,0 -0.247267,0.0803 -0.436642,0.36396 -0.683909,0.44427 -2.435808,0.79116 1.732433,-1.3446 -1.709771,0.44427 -0.236647,0.12291 -0.433982,0.37934 -0.683909,0.44427 -0.335314,0.0871 -0.69055,-0.0871 -1.025863,0 -0.499857,0.12991 -0.873282,0.72792 -1.367817,0.88855 -0.221163,0.0718 -0.460367,-0.0581 -0.68391,0 -0.686691,-0.10207 -1.114271,0.69513 -1.70977,0.88854 -0.221164,0.0718 -0.462747,-0.0718 -0.68391,0 -0.247267,0.0803 -0.436641,0.36402 -0.683909,0.44434 -0.221161,0.0712 -0.462746,-0.071 -0.683907,0 -0.494537,0.15994 -0.894522,0.64259 -1.367818,0.88854 -0.33467,0.17416 -0.691192,0.2703 -1.025863,0.44428 -0.236648,0.12264 -0.433981,0.37921 -0.683909,0.44426 -0.335313,0.0871 -0.694118,-0.10839 -1.025863,0 -0.156386,0.0515 -0.207828,0.32806 -0.341954,0.44428 -0.212071,0.18358 -0.455939,0.29606 -0.683909,0.44427 -0.227969,0.14749 -0.44211,0.33943 -0.683908,0.44426 -1.017941,0.44072 0.701622,-1.05202 -1.025864,0.44429 -0.134127,0.11551 -0.197773,0.35061 -0.341953,0.44426 -0.101958,0.0657 -0.240004,-0.0657 -0.341955,0 -0.14418,0.0942 -0.207829,0.32805 -0.341955,0.44427 -0.21207,0.18357 -0.471838,0.26052 -0.683908,0.44428 -0.134128,0.11551 -0.197775,0.3506 -0.341955,0.44426 -0.101956,0.0657 -0.233818,-0.0462 -0.341953,0 -1.239685,0.53686 -0.243368,0.21076 -1.025863,0.88854 -0.212071,0.18358 -0.471838,0.26052 -0.68391,0.44428 -1.203599,1.04244 0.519692,-0.15461 -0.683908,0.88854 -0.212071,0.18357 -0.471838,0.26052 -0.683909,0.44427 -0.134128,0.11552 -0.22797,0.29607 -0.341954,0.44427 -0.22797,0.1475 -0.471838,0.26052 -0.683909,0.44427 -0.268251,0.23227 -0.378055,0.75598 -0.683908,0.88854 -0.216271,0.0942 -0.467639,-0.0942 -0.683909,0 -0.231554,0.0995 -0.764648,1.16316 -1.025863,1.33281 -0.101956,0.066 -0.240003,-0.066 -0.341954,0 -0.158352,0.10301 -1.166699,1.51575 -1.367819,1.77716 -0.113979,0.14747 -0.189027,0.37798 -0.341953,0.44425 -0.216271,0.0937 -0.467637,-0.0937 -0.683909,0 -0.305853,0.13202 -0.415658,0.65602 -0.683908,0.88851 -0.212071,0.18352 -0.471839,0.26048 -0.683909,0.44426 -0.134128,0.11618 -0.197774,0.35065 -0.341954,0.44425 -0.101957,0.0661 -0.261355,-0.10427 -0.341955,0 -0.180226,0.23409 -0.200574,0.61299 -0.341954,0.88851 -0.56706,1.10504 -0.07858,0.0515 -0.683909,0.44426 -0.28836,0.18735 -0.415658,0.65616 -0.683908,0.88865 -0.212071,0.18351 -0.503683,0.21004 -0.683908,0.44425 -0.180227,0.23408 -0.161729,0.6543 -0.341956,0.88851 -0.180226,0.23409 -0.503682,0.21006 -0.683908,0.44426 -0.180226,0.23408 -0.22797,0.59239 -0.341955,0.88852 -0.227969,0.1476 -0.480006,0.24569 -0.683908,0.44425 -0.257918,0.25137 -0.455938,0.59238 -0.683909,0.88864 -0.455938,0.59225 -0.911878,1.18452 -1.367817,1.77703 -0.797893,1.03664 -1.595787,2.07315 -2.39368,3.10993 -0.22797,0.29599 -0.490471,0.55343 -0.68391,0.88851 -0.152926,0.26483 -0.189027,0.62354 -0.341953,0.88851 -0.193438,0.33507 -0.455939,0.59239 -0.68391,0.88864 -0.683907,0.88851 -1.367816,1.77703 -2.051725,2.66554 -0.22797,0.29613 -0.49047,0.55343 -0.683909,0.88864 -0.748936,1.29726 0.170692,0.61114 -1.025863,1.77703 -1.944539,1.89479 0.726153,-1.38769 -1.367817,1.33277 -1.367817,1.77716 -2.735634,3.55418 -4.103452,5.33134 -0.22797,0.29597 -0.455938,0.59227 -0.683908,0.88847 -0.227971,0.296 -0.425991,0.6372 -0.68391,0.8885 -0.203901,0.1987 -0.480006,0.2456 -0.683907,0.4443 -0.257919,0.2514 -0.432159,0.6268 -0.683909,0.8886 -0.320921,0.3335 -0.704944,0.5549 -1.025863,0.8886 -0.251751,0.2615 -0.432159,0.6267 -0.68391,0.8884 -0.320919,0.3335 -0.704941,0.5551 -1.025862,0.8886 -0.251751,0.2616 -0.425991,0.6371 -0.683909,0.8884 -0.203902,0.1988 -0.480007,0.2458 -0.683908,0.4445 -0.708721,0.6905 -1.348442,1.9345 -2.051725,2.6655 -0.320922,0.3337 -0.735259,0.5109 -1.025864,0.8885 -0.180226,0.2341 -0.189029,0.6237 -0.341955,0.8887 -0.319254,0.5531 -1.319606,1.7143 -1.709772,2.2213 -0.11398,0.1474 -0.341954,0.2347 -0.341954,0.4442 0,0.1476 0.240003,0.066 0.341954,0 0.14418,-0.094 0.197775,-0.3505 0.341955,-0.4442 0.203902,-0.1321 0.480007,0.1319 0.683908,0 0.845108,-0.5491 -0.118028,-0.4443 0.683909,-0.4443 0.113981,0 0.240003,0.066 0.341955,0 1.56499,-1.0167 -1.451055,0.1842 1.025864,-0.8886 0.108138,-0.046 0.240001,0.066 0.341953,0 0.14418,-0.094 0.189028,-0.378 0.341954,-0.4441 2.401781,-1.0403 -0.578025,0.9449 1.025863,-0.4443 0.212071,-0.1838 0.455938,-0.2963 0.683909,-0.4443 0.22797,-0.1475 0.436641,-0.364 0.683909,-0.4444 0.221162,-0.072 0.455938,0 0.683908,0 0.341955,-0.1474 0.683908,-0.296 1.025864,-0.4442 2.578534,-1.1166 -0.599829,0.3896 2.051726,-1.3328 1.574322,-1.0226 0.452854,-0.027 2.051725,-0.4442 0.249928,-0.064 0.447262,-0.3214 0.683908,-0.4443 0.334672,-0.1741 0.672411,-0.3527 1.025864,-0.4443 0.223543,-0.058 0.455939,0 0.683908,0 0.227971,-0.1476 0.436642,-0.3639 0.683909,-0.4442 0.221163,-0.072 0.467637,0.094 0.68391,0 0.152925,-0.066 0.185568,-0.3937 0.341953,-0.4445 0.331745,-0.1081 0.69055,0.087 1.025863,0 0.499857,-0.1293 0.867961,-0.7585 1.367817,-0.8884 0.335314,-0.087 0.69055,0.087 1.025864,0 0.249927,-0.063 0.43664,-0.364 0.683908,-0.4443 0.221163,-0.072 0.455938,0 0.683909,0 0.22797,-0.1474 0.442109,-0.3396 0.683909,-0.4443 0.324406,-0.1402 0.694118,0.1083 1.025863,0 0.247267,-0.08 0.436641,-0.3639 0.683907,-0.4442 0.221164,-0.072 0.462747,0.072 0.68391,0 0.247267,-0.08 0.43398,-0.3794 0.683908,-0.4442 0.335313,-0.087 0.688562,0.073 1.025863,0 0.355548,-0.077 0.672412,-0.3526 1.025863,-0.4443 0.447085,-0.1149 0.935276,0.1872 1.367817,0 0.152927,-0.066 0.197774,-0.3506 0.341955,-0.4443 0.101957,-0.066 0.227969,0 0.341954,0 0.11398,0 0.227971,0 0.341954,0 0.113981,0 0.227971,0 0.341956,0 0.11398,0 0.341953,-0.1475 0.341953,0 0,0.296 -0.480007,-0.1319 -0.683909,0 -0.144179,0.094 -0.207828,0.328 -0.341954,0.4443 -0.212069,0.1835 -0.455938,0.296 -0.683909,0.4443 -0.227969,0.1475 -0.442109,0.3394 -0.683908,0.4442 -0.10814,0.046 -0.240003,-0.066 -0.341954,0 -0.28836,0.1874 -0.415658,0.6561 -0.683909,0.8885 -0.212071,0.1837 -0.455939,0.2961 -0.683909,0.4443 -0.455938,0.2961 -0.911878,0.5924 -1.367817,0.8884 -0.22797,0.1477 -0.455939,0.2962 -0.683908,0.4445 -0.227971,0.1475 -0.480008,0.2456 -0.683909,0.4442 -0.257919,0.2513 -0.425991,0.637 -0.68391,0.8886 -0.407803,0.3974 -0.960012,0.4911 -1.367816,0.8885 -0.257918,0.2512 -0.425991,0.6371 -0.683909,0.8885 -0.203902,0.1987 -0.455938,0.2961 -0.683908,0.4442 -0.45594,0.2961 -0.911879,0.5924 -1.367818,0.8887 -1.655428,1.0753 0.360452,-0.3514 -1.367816,1.3327 -0.407805,0.3974 -0.960015,0.4912 -1.367819,0.8886 -0.257918,0.2513 -0.42599,0.6371 -0.683908,0.8885 -0.203902,0.1987 -0.480007,0.2456 -0.683909,0.4444 -0.257918,0.2512 -0.42599,0.6369 -0.683908,0.8885 -0.203903,0.1987 -0.480007,0.2456 -0.68391,0.4442 -0.386877,0.377 -0.623486,0.9841 -1.025863,1.3328 -0.212069,0.1836 -0.480005,0.2457 -0.683908,0.4442 -0.515836,0.5027 -0.851981,1.2745 -1.367818,1.7772 -0.203901,0.1987 -0.480006,0.2456 -0.683907,0.4443 -0.257919,0.2512 -0.45594,0.5922 -0.683909,0.8885 -0.227971,0.2961 -0.490471,0.5535 -0.68391,0.8885 -0.152926,0.2648 -0.161727,0.6544 -0.341953,0.8887 -0.180227,0.2339 -0.503683,0.21 -0.683909,0.4441 -0.180226,0.2341 -0.200574,0.613 -0.341954,0.8886 -0.08942,0.1741 -0.252538,0.27 -0.341955,0.4443 -0.141381,0.2754 -0.161728,0.6543 -0.341954,0.8885 -0.180226,0.2341 -0.503682,0.21 -0.683909,0.4442 -0.180227,0.2341 -0.189028,0.6238 -0.341954,0.8887 -0.193439,0.3349 -0.49047,0.5532 -0.683909,0.8885 -0.152926,0.2647 -0.189028,0.6236 -0.341954,0.8885 -0.193439,0.3349 -0.49047,0.5535 -0.683909,0.8885 -0.152926,0.2648 -0.189028,0.6237 -0.341954,0.8887 -0.193439,0.3349 -0.49047,0.5533 -0.683909,0.8885 -0.152926,0.2647 -0.189028,0.6236 -0.341954,0.8885 -0.193438,0.3349 -0.49047,0.5535 -0.683909,0.8885 -0.152926,0.2648 -0.21082,0.6046 -0.341954,0.8885 -0.211446,0.4578 -0.472462,0.8749 -0.683909,1.3329 -0.131133,0.2838 -0.189028,0.6235 -0.341954,0.8886 -0.2901576,0.5026 -0.7576122,0.8099 -1.0258631,1.3327 -0.1413803,0.2755 -0.200574,0.613 -0.3419543,0.8886 -0.089414,0.1741 -0.2698635,0.2569 -0.3419544,0.4443 -0.050979,0.132 0,0.296 0,0.4443 -0.1139802,0.296 -0.2005739,0.6128 -0.3419544,0.8884 -0.3354516,0.6537 -1.0323655,1.1233 -1.3678173,1.7772 -0.2827619,0.5508 -0.4011468,1.226 -0.6839081,1.777 -0.521664,1.0165 -0.2706809,-0.2779 -0.6839091,1.3328 -0.036043,0.1405 0.080604,0.3394 0,0.4442 -0.080604,0.1057 -0.261354,-0.1042 -0.3419539,0 -0.080604,0.1057 0.080604,0.3395 0,0.4444 -0.080604,0.1043 -0.422555,0.1043 -0.3419551,0 1.3345577,-1.7339 0.1836465,0.1032 1.0258631,-0.4444 0.1826325,-0.1188 0.8458366,-1.0989 1.0258631,-1.3327 0.2670965,-0.3471 0.7307906,-1.0773 1.0258631,-1.3328 0.2120705,-0.1837 0.4718382,-0.2607 0.6839086,-0.4442 0.2682509,-0.2325 0.4156579,-0.6563 0.6839087,-0.8886 0.4241424,-0.3675 0.9436753,-0.5213 1.3678171,-0.8886 0.134128,-0.1162 0.189029,-0.3781 0.341954,-0.4443 0.216272,-0.094 0.462747,0.072 0.683909,0 0.991747,-0.3221 0.400177,-0.3466 1.025863,-0.8884 0.212071,-0.1838 0.455938,-0.2963 0.683909,-0.4443 0.22797,-0.1475 0.455939,-0.2963 0.68391,-0.4443 0.227968,0 0.467636,0.094 0.683907,0 0.152926,-0.066 0.207829,-0.3283 0.341955,-0.4442 0.601458,-0.5211 1.014652,-0.5276 1.709771,-0.8887 0.236648,-0.1227 0.447261,-0.3211 0.683909,-0.4443 0.334671,-0.1741 0.691192,-0.2705 1.025862,-0.4441 0.473298,-0.246 0.884223,-0.6793 1.367819,-0.8886 0.108139,-0.046 0.233817,0.046 0.341954,0 0.483596,-0.2095 0.884221,-0.6793 1.367816,-0.8886 0.108141,-0.046 0.23382,0.046 0.341955,0 0.618917,0.2677 0.635974,-0.7197 1.025863,-0.8885 1.480532,-0.6411 -0.125688,0.8493 1.367818,-0.4443 1.603887,-1.3893 -1.375918,0.596 1.025862,-0.4443 0.152927,-0.066 0.197774,-0.3506 0.341955,-0.4442 0.101957,-0.066 0.261354,0.1042 0.341954,0 0.08061,-0.1043 -0.08061,-0.3396 0,-0.4443 0.08061,-0.1043 0.341954,-0.1475 0.341954,0 0,0.2094 -0.269863,0.257 -0.341954,0.4443 -0.05098,0.132 0.08061,0.3394 0,0.4442 -0.08061,0.1043 -0.240003,-0.066 -0.341954,0 -0.141484,0.093 -0.929236,1.1445 -1.025863,1.3328 -0.14138,0.2755 -0.200574,0.613 -0.341954,0.8886 -0.08942,0.1742 -0.290979,0.2456 -0.341955,0.4443 -0.07209,0.2809 0.07209,0.6075 0,0.8886 -0.05098,0.1986 -0.290978,0.2455 -0.341955,0.4441 -0.07209,0.281 0.05529,0.6013 0,0.8886 0.206106,0.8041 -0.553944,0.8262 -0.683908,1.3329 -0.07209,0.2809 0.05529,0.6011 0,0.8885 -0.412819,2.1452 -0.162503,-0.021 -0.683908,1.3328 -0.05099,0.132 0.05098,0.3117 0,0.4443 -0.0721,0.1872 -0.290979,0.2456 -0.341955,0.4443 0,2.0224 0.161199,0.025 -0.341955,1.3328 -0.101956,0.2647 0.1612,0.679 0,0.8885 -0.0806,0.1043 -0.261353,-0.1043 -0.341953,0 -0.08061,0.1043 -0.08061,0.3394 0,0.4443 0.08061,0.1043 0.240002,0.066 0.341953,0 0.288362,-0.1874 0.39555,-0.7012 0.68391,-0.8886 0.101957,-0.066 0.240002,0.066 0.341953,0 0.144181,-0.094 0.227971,-0.2962 0.341955,-0.4442 0.113981,-0.1475 0.269864,-0.257 0.341955,-0.4443 0.302667,-0.7866 -0.508636,-0.1528 0.341953,-0.8885 0.212071,-0.1838 0.471839,-0.2608 0.68391,-0.4443 0.134127,-0.1162 0.22797,-0.2962 0.341954,-0.4443 0.22797,-0.2963 0.455939,-0.5924 0.683908,-0.8886 0.113981,-0.1474 0.252538,-0.27 0.341955,-0.4442 0.582505,-1.1353 0.03983,-0.8164 1.025864,-1.777 0.203901,-0.1987 0.480005,-0.2457 0.683907,-0.4444 0.257919,-0.2513 0.432158,-0.6268 0.683909,-0.8886 0.32092,-0.3334 0.704943,-0.555 1.025863,-0.8884 0.5035,-0.5234 0.81491,-1.3461 1.367818,-1.7772 0.309083,-0.2409 0.716779,-0.2034 1.025863,-0.4442 0.276452,-0.2155 0.42599,-0.6374 0.683907,-0.8886 0.203903,-0.1986 0.465355,-0.2739 0.68391,-0.4442 0.352411,-0.2747 0.673451,-0.6138 1.025863,-0.8885 0.218555,-0.1706 0.480006,-0.2456 0.683909,-0.4443 0.257918,-0.2515 0.407455,-0.6732 0.683908,-0.8886 0.309084,-0.241 0.716779,-0.2035 1.025863,-0.4443 0.276454,-0.2155 0.407455,-0.673 0.683909,-0.8885 0.309084,-0.2409 0.703465,-0.2348 1.025863,-0.4442 0.367589,-0.2389 0.658274,-0.6499 1.025862,-0.8886 0.322398,-0.2095 0.71678,-0.2035 1.025863,-0.4442 0.276454,-0.2157 0.407455,-0.6732 0.683909,-0.8887 0.309085,-0.2409 0.703467,-0.2349 1.025863,-0.4442 0.367591,-0.2389 0.658273,-0.6499 1.025863,-0.8885 0.322398,-0.2095 0.703466,-0.2349 1.025863,-0.4443 0.367591,-0.2388 0.673452,-0.6138 1.025863,-0.8886 0.218555,-0.1705 0.465354,-0.274 0.683909,-0.4441 0.352411,-0.2748 0.658272,-0.65 1.025863,-0.8887 0.322397,-0.2095 0.703466,-0.2349 1.025863,-0.4443 0.847165,-0.5502 1.204561,-1.2268 2.051726,-1.777 0.322397,-0.2095 0.716778,-0.2035 1.025863,-0.4442 0.276453,-0.2156 0.407455,-0.6732 0.683908,-0.8887 0.309085,-0.2409 0.691193,-0.2704 1.025863,-0.4443 0.826855,-0.4295 1.494654,-1.0992 2.393681,-1.3327 0.223542,-0.058 0.462746,0.072 0.683908,0 0.247267,-0.08 0.45594,-0.2963 0.68391,-0.4443 0.227969,-0.1474 0.471837,-0.2608 0.683908,-0.4442 0.134128,-0.1149 0.197774,-0.3507 0.341954,-0.4443 0.203903,-0.132 0.480007,0.1321 0.683909,0 0.144181,-0.094 0.22797,-0.5925 0.341954,-0.4442 0.113981,0.1475 -0.197773,0.3504 -0.341954,0.4442 -0.101957,0.066 -0.240003,-0.066 -0.341954,0 -1.423132,0.9244 0.365561,-0.031 -0.341955,0.8885 -0.08061,0.1043 -0.233819,-0.046 -0.341954,0 -0.2418,0.1043 -0.503683,0.2101 -0.683908,0.4443 -0.08061,0.1043 0.05098,0.3117 0,0.4443 -0.0721,0.1873 -0.22797,0.2961 -0.341955,0.4442 -1.04591,1.3588 0.558225,-0.8191 -0.683908,1.3329 -0.193439,0.3349 -0.490471,0.5533 -0.68391,0.8885 -0.152926,0.2647 -0.22797,0.5923 -0.341953,0.8885 -0.227971,0.2962 -0.490471,0.5535 -0.68391,0.8885 -0.305853,0.5298 -0.378054,1.2472 -0.683907,1.7771 -0.193439,0.335 -0.539729,0.5138 -0.68391,0.8886 -0.101957,0.2648 0.05528,0.6012 0,0.8885 -0.138015,0.7173 -0.336305,0.8811 -0.683909,1.3329 -0.11398,0.1474 -0.269863,0.257 -0.341954,0.4443 -0.05098,0.132 0.05099,0.3117 0,0.4442 -0.14418,0.3746 -0.539728,0.5137 -0.683909,0.8886 -0.05098,0.132 -0.11398,0.4442 0,0.4442 0.161199,0 0.227971,-0.2962 0.341955,-0.4442 0.341954,-0.4443 0.683908,-0.8886 1.025863,-1.3328 0.22797,-0.2963 0.415658,-0.6563 0.683908,-0.8887 0.505042,-0.4375 0.862777,-0.4511 1.367818,-0.8885 1.566541,-1.3569 -1.453504,0.7221 1.025863,-0.8885 0.22797,-0.1475 0.455938,-0.2963 0.683908,-0.4443 0.227971,-0.1474 0.480007,-0.2455 0.68391,-0.4443 0.257917,-0.2514 0.455937,-0.5924 0.683908,-0.8884 0.113981,-0.1476 0.189028,-0.3782 0.341954,-0.4444 1.556674,0 0.01956,0.2094 1.025863,-0.4443 0.101958,-0.066 0.261354,0.1043 0.341955,0 0.08061,-0.1042 -0.08061,-0.3395 0,-0.4442 0.180226,-0.2342 0.471838,-0.2606 0.683908,-0.4443 0.268251,-0.2325 0.395548,-0.7012 0.683909,-0.8885 1.112189,-0.7225 0.8134,-0.1122 1.709771,-0.8885 0.134129,-0.1162 0.189028,-0.3782 0.341955,-0.4444 0.216271,-0.094 0.467638,0.094 0.683908,0 0.152926,-0.066 0.197774,-0.3505 0.341955,-0.4443 0.101957,-0.066 0.240003,0.066 0.341955,0 0.410345,-0.2665 0.615517,-1.0661 1.025863,-1.3327 0.366057,-0.2378 0.729757,0.3846 1.367816,-0.4443 0.08061,-0.1042 -0.08061,-0.3396 0,-0.4442 0.08061,-0.1043 0.240004,0.066 0.341954,0 0.144181,-0.094 0.197775,-0.3507 0.341956,-0.4443 0.101956,-0.066 0.240001,0.066 0.341954,0 0.14418,-0.094 0.197774,-0.3507 0.341953,-0.4442 0.101958,-0.066 0.240004,0.066 0.341955,0 0.144181,-0.094 0.197774,-0.3507 0.341955,-0.4444 0.101957,-0.066 0.240002,0.066 0.341953,0 0.144181,-0.094 0.197775,-0.3505 0.341955,-0.4443 0.101958,-0.066 0.240003,0.066 0.341955,0 0.14418,-0.094 0.197774,-0.3505 0.341954,-0.4442 0.101956,-0.066 0.240003,0.066 0.341954,0 0.288362,-0.1872 0.395548,-0.7012 0.683909,-0.8886 0.101956,-0.066 0.240002,0.066 0.341954,0 0.144181,-0.094 0.189028,-0.3781 0.341955,-0.4443 0.21627,-0.094 0.480007,0.1321 0.683908,0 0.101957,-0.066 -0.08061,-0.3394 0,-0.4441 0.08061,-0.1043 0.240003,0.066 0.341954,0 0.144181,-0.094 0.197774,-0.3507 0.341955,-0.4443 0.101956,-0.066 0.240002,0.066 0.341954,0 0.14418,-0.094 0.197775,-0.3506 0.341954,-0.4443 0.101958,-0.066 0.22797,0 0.341955,0 0.227969,-0.1475 0.471838,-0.2607 0.683909,-0.4444 0.26825,-0.2323 0.415658,-0.6562 0.683908,-0.8885 0.212071,-0.1837 0.471839,-0.2606 0.683908,-0.4442 0.268252,-0.2326 0.395549,-0.7012 0.68391,-0.8885 0.101956,-0.066 0.240002,0.066 0.341953,0 0.303089,-0.197 0.714578,-1.0633 1.025863,-1.3328 -0.03894,-0.8416 0.797894,-0.2963 1.025863,-0.4445 0.288362,-0.1871 0.395549,-0.7011 0.68391,-0.8884 0.101957,-0.066 0.261354,0.1043 0.341954,0 0.0806,-0.1043 -0.08061,-0.3396 0,-0.4443 0.0806,-0.1042 0.261353,0.1043 0.341954,0 0.08061,-0.1042 -0.08061,-0.3396 0,-0.4443 0.08061,-0.1042 0.240003,0.066 0.341955,0 0.14418,-0.094 0.197773,-0.3506 0.341954,-0.4442 0.101957,-0.066 0.240003,0.066 0.341954,0 0.410346,-0.2665 0.615518,-1.0662 1.025863,-1.3328 1.006306,-0.6539 -0.450212,1.029 0.683909,-0.4443 0.11398,-0.1475 0.227969,-0.2962 0.341954,-0.4443 0.113979,-0.1475 0.197774,-0.3505 0.341954,-0.4443 0.101958,-0.066 0.240003,0.066 0.341955,0 0.288362,-0.1873 0.395548,-0.7011 0.683908,-0.8885 0.101958,-0.066 0.261355,0.1043 0.341955,0 0.08061,-0.1042 -0.08061,-0.3395 0,-0.4442 0.08061,-0.1043 0.261354,0.1043 0.341954,0 0.08061,-0.1043 -0.0806,-0.33958 0,-0.44427 0.08061,-0.10428 0.261354,0.10427 0.341954,0 0.08061,-0.10428 -0.08061,-0.3397 0,-0.44426 0.08061,-0.10427 0.240003,0.066 0.341955,0 0.410345,-0.26655 0.615518,-1.06635 1.025863,-1.3329 0.101957,-0.066 0.261355,0.10427 0.341954,0 0.08061,-0.10428 -0.05098,-0.31184 0,-0.44426 0.04539,-0.1175 0.935071,-1.27375 1.025863,-1.33276 0.101957,-0.066 0.261354,0.10427 0.341954,0 0.707515,-0.91928 -1.081177,0.0356 0.341955,-0.88852 0.101957,-0.066 0.240002,0.066 0.341953,0 0.144181,-0.0937 0.197775,-0.35065 0.341955,-0.44438 0.101957,-0.0661 0.261355,0.10561 0.341955,0 0.0806,-0.10428 -0.08061,-0.33956 0,-0.44426 0.0806,-0.10428 0.261354,0.10561 0.341953,0 0.08061,-0.10428 -0.08061,-0.33957 0,-0.44426 0.08061,-0.10427 0.261355,0.10428 0.341955,0 0.08061,-0.10427 -0.05098,-0.31183 0,-0.44425 0.04539,-0.11751 0.93507,-1.27376 1.025864,-1.33278 0.911878,0 -0.113981,0.14747 0.341954,-0.44425 0.08061,-0.10428 0.240002,0.066 0.341953,0 0.144181,-0.0937 0.227971,-0.29626 0.341955,-0.44426 0.11398,-0.14759 0.269864,-0.25704 0.341955,-0.44438 0.05098,-0.13322 -0.08061,-0.33957 0,-0.44426 0.08061,-0.10428 0.240002,0.066 0.341954,0 0.06545,-0.0422 1.335087,-1.69213 1.367817,-1.77703 0.05098,-0.13334 -0.08061,-0.33955 0,-0.44425 0.08061,-0.10428 0.261355,0.10427 0.341955,0 0.08061,-0.10428 -0.08061,-0.3397 0,-0.44426 0.08061,-0.10562 0.261354,0.10428 0.341954,0 0.08061,-0.10562 -0.05098,-0.31197 0,-0.44425 0.14418,-0.37481 0.539728,-0.51396 0.683909,-0.88865 0.05098,-0.13321 -0.08061,-0.33956 0,-0.44425 0.08061,-0.10428 0.261354,0.10427 0.341955,0 0.08061,-0.10428 -0.08061,-0.33956 0,-0.44426 0.08061,-0.10427 0.261353,0.10428 0.341953,0 0.08061,-0.10427 -0.05098,-0.31183 0,-0.44425 0.0721,-0.18734 0.269863,-0.25692 0.341954,-0.44426 0.05098,-0.13335 -0.05098,-0.31184 0,-0.44425 0.0721,-0.18735 0.269864,-0.25706 0.341956,-0.44426 0.05098,-0.13335 -0.08061,-0.3397 0,-0.44425 0.0806,-0.10563 0.261358,0.10427 0.341952,0 0.161198,-0.20952 -0.161197,-0.67927 0,-0.88865 0.08062,-0.10428 0.261353,0.10427 0.341957,0 0.170979,-0.22207 -0.170978,-1.11071 0,-1.33277 0.08061,-0.10427 0.261353,0.10428 0.341958,0 0.08062,-0.10427 0,-0.29627 0,-0.44426 0.113975,0 0.261352,0.10427 0.341946,0 0.170979,-0.22219 -0.170978,-1.1107 0,-1.3329 0.08062,-0.10427 0.261353,0.10562 0.341957,0 0.08061,-0.10427 -0.08061,-0.33956 0,-0.44425 0.08061,-0.10428 0.261354,0.10561 0.341958,0 0.08061,-0.10428 -0.08062,-0.33957 0,-0.44426 0.08061,-0.10427 0.261352,0.10428 0.341956,0 0.08226,-0.10694 -0.08226,-1.67022 0,-1.77703 0.08062,-0.10427 0.261353,0.10428 0.341947,0 0.161199,-0.20952 -0.161198,-0.67925 0,-0.88851 0.08061,-0.10427 0.261354,0.10428 0.341958,0 0.08061,-0.10427 -0.08062,-0.33969 0,-0.44439 0.08061,-0.10428 0.261345,0.10562 0.341955,0 0.1612,-0.20952 -0.16119,-0.67912 0,-0.88851 0.0806,-0.10428 0.26136,0.10427 0.34195,0 0.0806,-0.10428 -0.051,-0.31184 0,-0.44426 0.0721,-0.18733 0.26987,-0.25691 0.34196,-0.44425 0.051,-0.13335 -0.051,-0.31184 0,-0.44426 0.0721,-0.18733 0.26986,-0.25691 0.34195,-0.44425 0.051,-0.13335 -0.0806,-0.3397 0,-0.44426 0.0806,-0.10427 0.26136,0.10428 0.34196,0 0.0806,-0.10427 -0.051,-0.31197 0,-0.44425 0.14418,-0.37481 0.53972,-0.51397 0.6839,-0.88865 0.051,-0.13321 -0.051,-0.31184 0,-0.44425 0.072,-0.18734 0.26987,-0.25692 0.34197,-0.44426 0.051,-0.13321 -0.051,-0.31184 0,-0.44426 0.072,-0.18734 0.26985,-0.25691 0.34195,-0.44427 0.051,-0.13328 -0.051,-0.31188 0,-0.44428 0.072,-0.1873 0.26986,-0.25696 0.34194,-0.44427 0.10196,-0.26496 -0.16119,-0.67921 0,-0.88854 0.0806,-0.1048 0.26136,0.10481 0.34197,0 0.0806,-0.1048 0.0806,-0.3396 0,-0.44427 -0.16121,-0.20952 -0.52271,0.20934 -0.68391,0 -0.0806,-0.1048 0.0806,-0.3396 0,-0.44427 -0.22718,-0.29517 -0.45673,0.29518 -0.68392,0 -0.0806,-0.1048 0.0806,-0.3396 0,-0.44426 -0.16119,-0.20952 -0.48001,0.13149 -0.6839,0 -0.14419,-0.0942 -0.19778,-0.35063 -0.34196,-0.44428 -0.10196,-0.0657 -0.26135,0.1048 -0.34195,0 -0.70752,-0.91929 1.08117,0.0355 -0.34196,-0.88855 -0.47168,-0.30654 -0.30586,0.53793 -0.683905,-0.44427 -0.05099,-0.13327 0.08061,-0.3396 0,-0.44426 -0.08062,-0.10481 -0.240006,0.0657 -0.341958,0 -0.410342,-0.26657 -0.615519,-1.06626 -1.025861,-1.33281 -0.101951,-0.0657 -0.261353,0.1048 -0.341957,0 -0.08061,-0.1048 0.08062,-0.3396 0,-0.44429 -0.08061,-0.1048 -0.261352,0.1048 -0.341946,0 -0.08062,-0.1048 0.08062,-0.3396 0,-0.44426 -0.08062,-0.10481 -0.240006,0.0657 -0.341958,0 -0.336499,-0.21858 -1.031326,-1.55851 -1.367819,-1.77709 -0.101957,-0.0657 -0.240002,0.0657 -0.341953,0 -0.288361,-0.1873 -0.395548,-0.70123 -0.68391,-0.88854 -0.101957,-0.0657 -0.261354,0.1048 -0.341954,0 -0.08061,-0.1048 0.08061,-0.33962 0,-0.44434 -0.08061,-0.1047 -0.261354,0.1047 -0.341954,0 -0.08061,-0.1047 0.08061,-0.33955 0,-0.44427 -0.08061,-0.10469 -0.261355,0.1047 -0.341955,0 -0.08061,-0.10469 0.08061,-0.33954 0,-0.44427 -0.08061,-0.1047 -0.240002,0.0663 -0.341954,0 -0.28836,-0.18733 -0.395547,-0.70123 -0.683909,-0.88855 -0.101957,-0.0663 -0.261355,0.10469 -0.341954,0 -0.08061,-0.1047 0.0806,-0.33955 0,-0.44427 -0.08061,-0.1047 -0.240002,0.0662 -0.341954,0 -0.144181,-0.0936 -0.197775,-0.35061 -0.341955,-0.44427 -0.203902,-0.13239 -0.522709,0.20943 -0.683908,0 -0.08061,-0.10469 0.08061,-0.33954 0,-0.44427 -0.161199,-0.20943 -0.522711,0.20943 -0.68391,0 -0.0806,-0.1047 0.08061,-0.33955 0,-0.44427 -0.161197,-0.20942 -0.480005,0.13239 -0.683908,0 -0.14418,-0.0936 -0.197774,-0.35063 -0.341955,-0.44426 -0.203901,-0.1324 -0.522709,0.20942 -0.683908,0 -0.08061,-0.1047 0.08061,-0.33955 0,-0.44428 -0.161199,-0.20944 -0.480007,0.1324 -0.683908,0 -0.14418,-0.0936 -0.197775,-0.35062 -0.341955,-0.44428 -0.101956,-0.0662 -0.230183,0.029 -0.341954,0 -0.460845,-0.11974 -0.911879,-0.29618 -1.367817,-0.44427 z"
       id="path7686"
       inkscape:connector-curvature="0" />
    <ellipse
       style="fill:url(#radialGradient7719);fill-opacity:1;stroke:#000000;stroke-opacity:1"
       id="path7144"
       cx="100.5"
       cy="949.86218"
       rx="20"
       ry="20.25"
       inkscape:transform-center-y="0.5" />
    <path
       style="fill:url(#radialGradient7739);fill-rule:evenodd;stroke:#000000;stroke-width:1px;stroke-linecap:butt;stroke-linejoin:miter;stroke-opacity:1;fill-opacity:1.0"
       d="m 77.75,943.11216 c -1.053722,0.20042 -0.05997,0.86994 -0.25,1.25 -0.05271,0.10541 -0.197295,0.14459 -0.25,0.25 -0.07454,0.14907 0.07454,0.35093 0,0.5 -0.05271,0.10541 -0.197295,0.14459 -0.25,0.25 -0.03727,0.0745 0,0.16667 0,0.25 0,0.41667 0,0.83333 0,1.25 0,0.0833 0,0.16667 0,0.25 0,0.0833 0.03727,0.17546 0,0.25 -0.05271,0.10541 -0.197295,0.14459 -0.25,0.25 -0.03727,0.0745 0,0.16667 0,0.25 0,0.0833 0,0.16667 0,0.25 0,0.5 0,1 0,1.5 0,0.0833 0,0.16667 0,0.25 0,0.0833 -0.05893,0.19107 0,0.25 0.05893,0.0589 0.191074,-0.0589 0.25,0 0.05893,0.0589 0,0.16667 0,0.25 0,0.41667 0,0.83333 0,1.25 0,0.0833 -0.05893,0.19107 0,0.25 0.05893,0.0589 0.191074,-0.0589 0.25,0 0.08776,0.0878 -0.08634,1.07732 0,1.25 0.05271,0.10541 0.197295,0.14459 0.25,0.25 0.03727,0.0745 -0.03727,0.17546 0,0.25 0.05271,0.10541 0.197295,0.14459 0.25,0.25 0.07454,0.14907 -0.07454,0.35093 0,0.5 0.05271,0.10541 0.197295,0.14459 0.25,0.25 0.0759,0.15181 -0.0759,1.34819 0,1.5 0.05271,0.10541 0.197295,0.14459 0.25,0.25 0.03727,0.0745 0,0.16667 0,0.25 0,0.0833 0,0.16667 0,0.25 0,0.13073 -0.03287,0.93426 0,1 0.05271,0.10541 0.197295,0.14459 0.25,0.25 0.06781,0.13562 -0.0684,0.93159 0,1 0.517259,0.51726 -0.02022,-0.79044 0.5,0.25 0.03727,0.0745 -0.03727,0.17546 0,0.25 0.05271,0.10541 0.197295,0.14459 0.25,0.25 0.03727,0.0745 -0.05893,0.19107 0,0.25 0.05893,0.0589 0.191074,-0.0589 0.25,0 0.117851,0.11785 -0.117851,0.38215 0,0.5 0.05893,0.0589 0.191074,-0.0589 0.25,0 0.05893,0.0589 -0.03727,0.17546 0,0.25 0.105409,0.21082 0.394591,0.28918 0.5,0.5 0.03727,0.0745 -0.05893,0.19107 0,0.25 0.05893,0.0589 0.191074,-0.0589 0.25,0 0.05893,0.0589 -0.03727,0.17546 0,0.25 0.05271,0.10541 0.197295,0.14459 0.25,0.25 0.03727,0.0745 -0.03727,0.17546 0,0.25 0.05271,0.10541 0.197295,0.14459 0.25,0.25 0.07454,0.14907 -0.07454,0.35093 0,0.5 0.05271,0.10541 0.197295,0.14459 0.25,0.25 0.03727,0.0745 0,0.16667 0,0.25 0.08333,0.0833 0.197295,0.14459 0.25,0.25 0.03727,0.0745 -0.03727,0.17546 0,0.25 0.105409,0.21082 0.394591,0.28918 0.5,0.5 0.03727,0.0745 -0.05893,0.19107 0,0.25 0.05893,0.0589 0.191074,-0.0589 0.25,0 0.975684,0.97568 -0.05787,0.13426 0.25,0.75 0.05271,0.10541 0.197295,0.14459 0.25,0.25 0.03727,0.0745 -0.03727,0.17546 0,0.25 0.52022,1.04044 -0.01726,-0.26726 0.5,0.25 0.05893,0.0589 -0.05893,0.19107 0,0.25 0.05893,0.0589 0.191074,-0.0589 0.25,0 0.05893,0.0589 -0.05893,0.19107 0,0.25 0.05893,0.0589 0.191074,-0.0589 0.25,0 0.05893,0.0589 -0.05893,0.19107 0,0.25 0.05893,0.0589 0.191074,-0.0589 0.25,0 0.05893,0.0589 -0.05893,0.19107 0,0.25 0.05893,0.0589 0.175464,-0.0373 0.25,0 0.105409,0.0527 0.144591,0.1973 0.25,0.25 0.07454,0.0373 0.166667,0 0.25,0 0.08333,0.0833 0.144591,0.1973 0.25,0.25 0.07454,0.0373 0.175464,-0.0373 0.25,0 0.105409,0.0527 0.144591,0.1973 0.25,0.25 0.07454,0.0373 0.191074,-0.0589 0.25,0 0.05893,0.0589 -0.05893,0.19107 0,0.25 2.39e-4,2.4e-4 0.748867,-3.8e-4 0.75,0 0.111803,0.0373 0.144591,0.1973 0.25,0.25 0.07454,0.0373 0.175464,-0.0373 0.25,0 0.105409,0.0527 0.144591,0.1973 0.25,0.25 0.07454,0.0373 0.175464,-0.0373 0.25,0 0.105409,0.0527 0.144591,0.1973 0.25,0.25 0.07454,0.0373 0.175464,-0.0373 0.25,0 0.105409,0.0527 0.144591,0.1973 0.25,0.25 0.07454,0.0373 0.175464,-0.0373 0.25,0 0.105409,0.0527 0.144591,0.1973 0.25,0.25 0.157131,0.0786 0.842869,-0.0786 1,0 0.105409,0.0527 0.144591,0.1973 0.25,0.25 0.07454,0.0373 0.170943,-0.0263 0.25,0 0.176777,0.0589 0.323223,0.19107 0.5,0.25 0.07906,0.0263 0.175464,-0.0373 0.25,0 0.105409,0.0527 0.138197,0.21273 0.25,0.25 0.224342,0.15811 0.512829,-0.0791 0.75,0 0.176777,0.0589 0.319225,0.20481 0.5,0.25 0.328703,0.0822 0.939513,-0.1035 1.25,0 0.111803,0.0373 0.138197,0.21273 0.25,0.25 0.128793,0.0429 1.485545,0 1.75,0 0.08333,0 0.166667,0 0.25,0 0.08333,0 0.175464,-0.0373 0.25,0 0.105409,0.0527 0.144591,0.1973 0.25,0.25 0.149071,0.0745 0.350929,-0.0745 0.5,0 0.105409,0.0527 0.144591,0.1973 0.25,0.25 0.2,0.1 0.55,-0.1 0.75,0 0.105409,0.0527 0.144591,0.1973 0.25,0.25 0.07608,0.038 0.637411,0 0.75,0 0.5,0 1,0 1.5,0 0.5,0 1,0 1.5,0 0.0833,0 0.16667,0 0.25,0 0.0833,0 0.17546,0.0373 0.25,0 0.10541,-0.0527 0.14459,-0.1973 0.25,-0.25 0.15772,-0.0789 1.09228,0.0789 1.25,0 0.10541,-0.0527 0.14459,-0.1973 0.25,-0.25 0.15772,-0.0789 1.09228,0.0789 1.25,0 0.10541,-0.0527 0.14459,-0.1973 0.25,-0.25 0.2,-0.1 0.55,0.1 0.75,0 0.10541,-0.0527 0.14459,-0.1973 0.25,-0.25 0.0745,-0.0373 0.17546,0.0373 0.25,0 0.10541,-0.0527 0.14459,-0.1973 0.25,-0.25 0.2,-0.1 0.55,0.1 0.75,0 0.10541,-0.0527 0.14459,-0.1973 0.25,-0.25 0.0745,-0.0373 0.16667,0 0.25,0 0.0833,-0.0833 0.14459,-0.1973 0.25,-0.25 0.26667,-0.13333 0.23333,0.13333 0.5,0 0.10541,-0.0527 0.14459,-0.1973 0.25,-0.25 0.0745,-0.0373 0.17546,0.0373 0.25,0 0.10541,-0.0527 0.14459,-0.1973 0.25,-0.25 0.14907,-0.0745 0.35093,0.0745 0.5,0 0.10541,-0.0527 0.14459,-0.1973 0.25,-0.25 0.0745,-0.0373 0.17546,0.0373 0.25,0 0.10541,-0.0527 0.14459,-0.1973 0.25,-0.25 0.0745,-0.0373 0.17546,0.0373 0.25,0 0.10541,-0.0527 0.14459,-0.1973 0.25,-0.25 0.0745,-0.0373 0.17546,0.0373 0.25,0 0.10541,-0.0527 0.14459,-0.1973 0.25,-0.25 0.14907,-0.0745 0.35093,0.0745 0.5,0 0.21082,-0.10541 0.28918,-0.39459 0.5,-0.5 0.14907,-0.0745 0.35093,0.0745 0.5,0 0.10541,-0.0527 0.14459,-0.1973 0.25,-0.25 0.0745,-0.0373 0.17546,0.0373 0.25,0 0.11577,-0.0579 0.85296,-0.85296 1,-1 0.0833,-0.0833 0.14459,-0.1973 0.25,-0.25 0.0745,-0.0373 0.19107,0.0589 0.25,0 0.0589,-0.0589 -0.0589,-0.19107 0,-0.25 0.0589,-0.0589 0.17546,0.0373 0.25,0 0.10541,-0.0527 0.16667,-0.16667 0.25,-0.25 0.0833,-0.0833 0.1973,-0.14459 0.25,-0.25 0.0373,-0.0745 -0.0373,-0.17546 0,-0.25 0.52022,-1.04044 -0.0173,0.26726 0.5,-0.25 0.0589,-0.0589 -0.0589,-0.19107 0,-0.25 0.51726,-0.51726 -0.0202,0.79044 0.5,-0.25 0.0373,-0.0745 -0.0373,-0.17546 0,-0.25 0.10541,-0.21082 0.39459,-0.28918 0.5,-0.5 0.0373,-0.0745 -0.0589,-0.19107 0,-0.25 0.0589,-0.0589 0.19107,0.0589 0.25,0 0.0589,-0.0589 -0.0373,-0.17546 0,-0.25 0.0527,-0.10541 0.16667,-0.16667 0.25,-0.25 0.0833,-0.0833 0.14459,-0.1973 0.25,-0.25 0.0745,-0.0373 0.19107,0.0589 0.25,0 0.0589,-0.0589 -0.0373,-0.17546 0,-0.25 0.0527,-0.10541 0.16667,-0.16667 0.25,-0.25 0.0833,-0.0833 0.14459,-0.1973 0.25,-0.25 0.0745,-0.0373 0.19107,0.0589 0.25,0 0.0589,-0.0589 -0.0589,-0.19107 0,-0.25 0.0589,-0.0589 0.17546,0.0373 0.25,0 0.10541,-0.0527 0.14459,-0.1973 0.25,-0.25 0.0745,-0.0373 0.19107,0.0589 0.25,0 0.11785,-0.11785 -0.0745,-0.35093 0,-0.5 0.0527,-0.10541 0.1973,-0.14459 0.25,-0.25 0.0373,-0.0745 -0.0373,-0.17546 0,-0.25 0.10541,-0.21082 0.39459,-0.28918 0.5,-0.5 0.0373,-0.0745 -0.0373,-0.17546 0,-0.25 0.0527,-0.10541 0.1973,-0.14459 0.25,-0.25 0.0373,-0.0745 -0.0373,-0.17546 0,-0.25 0.0527,-0.10541 0.1973,-0.14459 0.25,-0.25 0.0373,-0.0745 -0.0373,-0.17546 0,-0.25 0.0527,-0.10541 0.1973,-0.14459 0.25,-0.25 0.0373,-0.0745 -0.0589,-0.19107 0,-0.25 0.0589,-0.0589 0.19107,0.0589 0.25,0 0.125,-0.125 -0.125,-0.625 0,-0.75 0.0589,-0.0589 0.19107,0.0589 0.25,0 0.0589,-0.0589 -0.0373,-0.17546 0,-0.25 0.0527,-0.10541 0.1973,-0.14459 0.25,-0.25 0.0745,-0.14907 -0.0745,-0.35093 0,-0.5 0.0527,-0.10541 0.1973,-0.14459 0.25,-0.25 0.0745,-0.14907 -0.11785,-0.38215 0,-0.5 0.0589,-0.0589 0.19107,0.0589 0.25,0 0.0602,-0.0602 -0.0602,-0.93984 0,-1 0.0589,-0.0589 0.19107,0.0589 0.25,0 0.11785,-0.11785 -0.0745,-0.35093 0,-0.5 0.0527,-0.10541 0.1973,-0.14459 0.25,-0.25 0.0496,-0.0991 -0.0511,-0.69889 0,-0.75 0.0589,-0.0589 0.19107,0.0589 0.25,0 0.0589,-0.0589 0,-0.16667 0,-0.25 0,-0.0833 0,-0.16667 0,-0.25 0,-0.83333 0,-1.66667 0,-2.5 0,-1.25 0,-2.5 0,-3.75 0,-0.41667 0,-0.83333 0,-1.25 0,-0.0833 0,-0.16667 0,-0.25 0,-0.0833 0.0373,-0.17546 0,-0.25 -0.0527,-0.10541 -0.1973,-0.14459 -0.25,-0.25 -0.0745,-0.14907 0.0745,-0.35093 0,-0.5 -0.0527,-0.10541 -0.1973,-0.14459 -0.25,-0.25 -0.0745,-0.14907 0.0745,-0.35093 0,-0.5 -0.0527,-0.10541 -0.1973,-0.14459 -0.25,-0.25 -0.0373,-0.0745 0.0589,-0.19107 0,-0.25 -0.0589,-0.0589 -0.19107,0.0589 -0.25,0 -0.0589,-0.0589 0.0373,-0.17546 0,-0.25 -0.0527,-0.10541 -0.1973,-0.14459 -0.25,-0.25 -0.0373,-0.0745 0.0373,-0.17546 0,-0.25 -0.0527,-0.10541 -0.1973,-0.14459 -0.25,-0.25 -0.1,-0.2 0.1,-0.55 0,-0.75 -0.0527,-0.10541 -0.1973,-0.14459 -0.25,-0.25 -0.0745,-0.14907 0.11785,-0.38215 0,-0.5 -0.0589,-0.0589 -0.19107,0.0589 -0.25,0 -0.11785,-0.11785 0.0745,-0.35093 0,-0.5 -0.15,-0.3 -0.6,-0.45 -0.75,-0.75 -0.0373,-0.0745 0.0589,-0.19107 0,-0.25 -0.0589,-0.0589 -0.19107,0.0589 -0.25,0 -0.0589,-0.0589 0.0373,-0.17546 0,-0.25 -0.15,-0.3 -0.6,-0.45 -0.75,-0.75 -0.0373,-0.0745 0.0589,-0.19107 0,-0.25 -0.0589,-0.0589 -0.19107,0.0589 -0.25,0 -0.0589,-0.0589 0.0589,-0.19107 0,-0.25 -0.0589,-0.0589 -0.19107,0.0589 -0.25,0 -0.0589,-0.0589 0.0589,-0.19107 0,-0.25 -0.0589,-0.0589 -0.19107,0.0589 -0.25,0 -0.0589,-0.0589 0.0373,-0.17546 0,-0.25 -0.10541,-0.21082 -0.39459,-0.28918 -0.5,-0.5 -0.0373,-0.0745 0.0373,-0.17546 0,-0.25 -0.13333,-0.26667 -0.36667,-0.23333 -0.5,-0.5 -0.0373,-0.0745 0,-0.16667 0,-0.25 -0.0833,-0.0833 -0.1973,-0.14459 -0.25,-0.25 -0.0745,-0.14907 0.0745,-0.35093 0,-0.5 -0.0527,-0.10541 -0.1973,-0.14459 -0.25,-0.25 -0.13333,-0.26667 0.13333,-0.23333 0,-0.5 -0.0527,-0.10541 -0.1973,-0.14459 -0.25,-0.25 -0.0373,-0.0745 0.0589,-0.19107 0,-0.25 -0.0589,-0.0589 -0.19107,0.0589 -0.25,0 -0.11785,-0.11785 0.0745,-0.35093 0,-0.5 -0.10541,-0.21082 -0.39459,-0.28918 -0.5,-0.5 -0.0373,-0.0745 0.0373,-0.17546 0,-0.25 -0.0239,-0.0479 -0.95214,-0.97607 -1,-1 -0.0745,-0.0373 -0.19107,0.0589 -0.25,0 -0.0589,-0.0589 0.0589,-0.19107 0,-0.25 -0.0589,-0.0589 -0.17546,0.0373 -0.25,0 -0.10541,-0.0527 -0.14459,-0.1973 -0.25,-0.25 -0.0745,-0.0373 -0.17546,0.0373 -0.25,0 -0.10541,-0.0527 -0.14459,-0.1973 -0.25,-0.25 -0.0745,-0.0373 -0.17546,0.0373 -0.25,0 -0.10541,-0.0527 -0.1382,-0.21273 -0.25,-0.25 -0.15811,-0.0527 -0.35093,0.0745 -0.5,0 -0.0745,-0.0373 0.0589,-0.19107 0,-0.25 -0.11785,-0.11785 -0.38215,0.11785 -0.5,0 -0.0589,-0.0589 0.0589,-0.19107 0,-0.25 -0.0589,-0.0589 -0.17546,0.0373 -0.25,0 -0.10541,-0.0527 -0.14459,-0.1973 -0.25,-0.25 -0.14907,-0.0745 -0.35093,0.0745 -0.5,0 -0.10541,-0.0527 -0.14459,-0.1973 -0.25,-0.25 -0.0745,-0.0373 -0.19107,0.0589 -0.25,0 -0.0589,-0.0589 0.0589,-0.19107 0,-0.25 -0.125,-0.125 -0.625,0.125 -0.75,0 -0.0589,-0.0589 0.0589,-0.19107 0,-0.25 -0.125,-0.125 -0.625,0.125 -0.75,0 -0.33333,-0.33333 0.41667,-0.25 -0.25,-0.25 -0.0833,0 -0.16667,0 -0.25,0 -0.0833,0 -0.19107,0.0589 -0.25,0 -0.0589,-0.0589 0.0589,-0.19107 0,-0.25 -0.11785,-0.11785 -0.38215,0.11785 -0.5,0 -0.0589,-0.0589 0.0589,-0.19107 0,-0.25 -0.0511,-0.0511 -0.65088,0.0496 -0.75,0 -0.10541,-0.0527 -0.14459,-0.1973 -0.25,-0.25 -0.0745,-0.0373 -0.17546,0.0373 -0.25,0 -0.10541,-0.0527 -0.14459,-0.1973 -0.25,-0.25 -0.15713,-0.0786 -0.84287,0.0786 -1,0 -0.10541,-0.0527 -0.14459,-0.1973 -0.25,-0.25 -0.0991,-0.0496 -0.69889,0.0511 -0.75,0 -0.0589,-0.0589 0.0589,-0.19107 0,-0.25 -0.0511,-0.0511 -0.65088,0.0496 -0.75,0 -0.10541,-0.0527 -0.14459,-0.1973 -0.25,-0.25 -0.0745,-0.0373 -0.16667,0 -0.25,0 -0.1131,0 -1.43338,0.0333 -1.5,0 -0.10541,-0.0527 -0.14459,-0.1973 -0.25,-0.25 -0.0797,-0.0398 -1.02657,0 -1.25,0 -0.91667,0 -1.833333,0 -2.75,0 -0.08333,0 -0.166667,0 -0.25,0 -0.08333,0 -0.191074,-0.0589 -0.25,0 -0.05893,0.0589 0.05893,0.19107 0,0.25 -0.08776,0.0878 -1.077317,-0.0863 -1.25,0 -0.105409,0.0527 -0.144591,0.1973 -0.25,0.25 -0.157717,0.0789 -1.092283,-0.0789 -1.25,0 -0.105409,0.0527 -0.144591,0.1973 -0.25,0.25 -0.2,0.1 -0.55,-0.1 -0.75,0 -0.105409,0.0527 -0.144591,0.1973 -0.25,0.25 -0.147505,0.0738 -0.578042,-0.0573 -0.75,0 -0.176777,0.0589 -0.323223,0.19107 -0.5,0.25 -0.158114,0.0527 -0.350929,-0.0745 -0.5,0 -0.105409,0.0527 -0.144591,0.1973 -0.25,0.25 -0.149071,0.0745 -0.350929,-0.0745 -0.5,0 -0.105409,0.0527 -0.144591,0.1973 -0.25,0.25 -0.149071,0.0745 -0.350929,-0.0745 -0.5,0 -0.105409,0.0527 -0.144591,0.1973 -0.25,0.25 -0.07454,0.0373 -0.175464,-0.0373 -0.25,0 -0.105409,0.0527 -0.144591,0.1973 -0.25,0.25 -0.07454,0.0373 -0.166667,0 -0.25,0 -0.08333,0.0833 -0.144591,0.1973 -0.25,0.25 -0.07454,0.0373 -0.175464,-0.0373 -0.25,0 -0.210818,0.10541 -0.289181,0.39459 -0.5,0.5 -0.07454,0.0373 -0.175464,-0.0373 -0.25,0 -0.105409,0.0527 -0.144591,0.1973 -0.25,0.25 -0.07454,0.0373 -0.175464,-0.0373 -0.25,0 -0.105409,0.0527 -0.144591,0.1973 -0.25,0.25 -0.07454,0.0373 -0.175464,-0.0373 -0.25,0 -0.105409,0.0527 -0.144591,0.1973 -0.25,0.25 -0.07454,0.0373 -0.175464,-0.0373 -0.25,0 -0.210818,0.10541 -0.289181,0.39459 -0.5,0.5 -0.07454,0.0373 -0.175464,-0.0373 -0.25,0 -0.105409,0.0527 -0.144591,0.1973 -0.25,0.25 -0.07454,0.0373 -0.175464,-0.0373 -0.25,0 -0.105409,0.0527 -0.144591,0.1973 -0.25,0.25 -0.07454,0.0373 -0.191074,-0.0589 -0.25,0 -0.05893,0.0589 0.05893,0.19107 0,0.25 -0.05893,0.0589 -0.175464,-0.0373 -0.25,0 -0.105409,0.0527 -0.144591,0.1973 -0.25,0.25 -0.07454,0.0373 -0.175464,-0.0373 -0.25,0 -0.3,0.15 -0.45,0.6 -0.75,0.75 -0.07454,0.0373 -0.175464,-0.0373 -0.25,0 -0.210818,0.10541 -0.289181,0.39459 -0.5,0.5 -0.07454,0.0373 -0.191074,-0.0589 -0.25,0 -0.517259,0.51726 0.79044,-0.0202 -0.25,0.5 -0.07454,0.0373 -0.175464,-0.0373 -0.25,0 -0.210818,0.10541 -0.289181,0.39459 -0.5,0.5 -0.07454,0.0373 -0.175464,-0.0373 -0.25,0 -0.105409,0.0527 -0.166667,0.16667 -0.25,0.25 -0.08333,0.0833 -0.197295,0.14459 -0.25,0.25 -0.03727,0.0745 0.05893,0.19107 0,0.25 -0.05893,0.0589 -0.175464,-0.0373 -0.25,0 -0.460254,0.23013 -0.03975,0.51987 -0.5,0.75 -0.666667,0 0.08333,-0.0833 -0.25,0.25 -0.05893,0.0589 -0.191074,-0.0589 -0.25,0 -0.05893,0.0589 0.03727,0.17546 0,0.25 -0.15,0.3 -0.6,0.45 -0.75,0.75 -0.03727,0.0745 0.05893,0.19107 0,0.25 -0.05893,0.0589 -0.191074,-0.0589 -0.25,0 -0.05893,0.0589 0.05893,0.19107 0,0.25 -0.05893,0.0589 -0.191074,-0.0589 -0.25,0 -0.05893,0.0589 0.05893,0.19107 0,0.25 -0.05893,0.0589 -0.191074,-0.0589 -0.25,0 -0.517259,0.51726 0.79044,-0.0202 -0.25,0.5 -0.07454,0.0373 -0.191074,-0.0589 -0.25,0 -0.05893,0.0589 0.03727,0.17546 0,0.25 -0.05271,0.10541 -0.197295,0.14459 -0.25,0.25 -0.03727,0.0745 0.03727,0.17546 0,0.25 -0.05271,0.10541 -0.197295,0.14459 -0.25,0.25 -0.07454,0.14907 0.117851,0.38215 0,0.5 -0.05893,0.0589 -0.191074,-0.0589 -0.25,0 -0.05893,0.0589 0,0.16667 0,0.25 0,0.0833 0,0.16667 0,0.25 0,0.0918 -0.01006,0.98994 0,1 0.05893,0.0589 0.191074,-0.0589 0.25,0 0.05893,0.0589 -0.05893,0.19107 0,0.25 0.05893,0.0589 0.191074,-0.0589 0.25,0 0.05893,0.0589 -0.05893,0.19107 0,0.25 0.05893,0.0589 0.191074,-0.0589 0.25,0 0.05893,0.0589 0,0.16667 0,0.25 0,0.0833 0,0.16667 0,0.25 0,0.41667 0,0.83333 0,1.25 z"
       id="path7731"
       inkscape:connector-curvature="0" />
  </g>
</svg>
