<?xml version="1.0" encoding="UTF-8" standalone="no"?>
<!-- Created with Inkscape (http://www.inkscape.org/) -->

<svg
   xmlns:dc="http://purl.org/dc/elements/1.1/"
   xmlns:cc="http://creativecommons.org/ns#"
   xmlns:rdf="http://www.w3.org/1999/02/22-rdf-syntax-ns#"
   xmlns:svg="http://www.w3.org/2000/svg"
   xmlns="http://www.w3.org/2000/svg"
   xmlns:xlink="http://www.w3.org/1999/xlink"
   xmlns:sodipodi="http://sodipodi.sourceforge.net/DTD/sodipodi-0.dtd"
   xmlns:inkscape="http://www.inkscape.org/namespaces/inkscape"
   width="1024"
   height="588"
   viewBox="0 0 1024 587.99999"
   id="svg4247"
   version="1.1"
   inkscape:version="0.91 r"
   sodipodi:docname="space.svg"
   inkscape:export-filename="/home/pmcolt/Projects/dit/assets/space.png"
   inkscape:export-xdpi="90.18"
   inkscape:export-ydpi="90.18">
  <defs
     id="defs4249">
    <linearGradient
       id="linearGradient4815"
       inkscape:collect="always">
      <stop
         id="stop4819"
         offset="0"
         style="stop-color:#ffff00;stop-opacity:1;" />
      <stop
         id="stop4821"
         offset="1"
         style="stop-color:#ff7600;stop-opacity:1" />
    </linearGradient>
    <radialGradient
       inkscape:collect="always"
       xlink:href="#linearGradient4815"
       id="radialGradient4807"
       cx="1355.7142"
       cy="609.505"
       fx="1355.7142"
       fy="609.505"
       r="441.42859"
       gradientTransform="matrix(1,0,0,1.5728155,-15.714286,-70.562451)"
       gradientUnits="userSpaceOnUse" />
  </defs>
  <sodipodi:namedview
     id="base"
     pagecolor="#000000"
     bordercolor="#666666"
     borderopacity="1.0"
     inkscape:pageopacity="0"
     inkscape:pageshadow="2"
     inkscape:zoom="0.7"
     inkscape:cx="408.15043"
     inkscape:cy="377.59667"
     inkscape:document-units="px"
     inkscape:current-layer="layer1"
     showgrid="false"
     units="px"
     inkscape:window-width="1366"
     inkscape:window-height="716"
     inkscape:window-x="0"
     inkscape:window-y="0"
     inkscape:window-maximized="1" />
  <metadata
     id="metadata4252">
    <rdf:RDF>
      <cc:Work
         rdf:about="">
        <dc:format>image/svg+xml</dc:format>
        <dc:type
           rdf:resource="http://purl.org/dc/dcmitype/StillImage" />
        <dc:title></dc:title>
      </cc:Work>
    </rdf:RDF>
  </metadata>
  <g
     inkscape:label="Layer 1"
     inkscape:groupmode="layer"
     id="layer1"
     transform="translate(0,-464.36215)">
    <ellipse
       style="fill:url(#radialGradient4807);fill-opacity:1.0"
       id="path4257"
       cx="1340"
       cy="888.07642"
       rx="441.42859"
       ry="694.28571" />
    <path
       sodipodi:type="star"
       style="fill:#f9f9f9;fill-opacity:1"
       id="path4829"
       sodipodi:sides="7"
       sodipodi:cx="244.28571"
       sodipodi:cy="228"
       sodipodi:r1="21.61821"
       sodipodi:r2="1.9456389"
       sodipodi:arg1="1.4382448"
       sodipodi:arg2="1.8870438"
       inkscape:flatsided="false"
       inkscape:rounded="0"
       inkscape:randomized="0"
       d="m 247.14285,249.42857 -3.46224,-19.57942 -14.36704,13.74515 13.14914,-14.91446 -19.70409,-2.66264 19.85894,0.9814 -10.20356,-17.06541 11.61456,16.13824 6.98046,-18.61757 -5.37582,19.14265 18.90805,-6.15032 -18.31811,7.73226 16.5975,10.94824 -17.46648,-9.50068 z"
       transform="translate(0,464.36215)"
       inkscape:transform-center-x="0.01064991"
       inkscape:transform-center-y="0.13187217" />
    <path
       sodipodi:type="star"
       style="fill:#f9f9f9;fill-opacity:1"
       id="path4831"
       sodipodi:sides="7"
       sodipodi:cx="757.14288"
       sodipodi:cy="516.64786"
       sodipodi:r1="21.092604"
       sodipodi:r2="1.8983344"
       sodipodi:arg1="1.076855"
       sodipodi:arg2="1.5256539"
       inkscape:flatsided="false"
       inkscape:rounded="0"
       inkscape:randomized="0"
       d="m 767.14288,535.21932 -9.91433,-16.67503 -8.3705,17.50101 6.85558,-18.14805 -18.90176,4.36738 18.4631,-5.95521 -15.19962,-12.05497 16.16753,10.72201 -0.0518,-19.39969 1.69748,19.32535 15.13496,-12.13604 -14.05081,13.3763 18.92484,4.26629 -19.21855,-2.64537 z"
       inkscape:transform-center-x="-0.21180606"
       inkscape:transform-center-y="-0.83685261" />
    <path
       sodipodi:type="star"
       style="fill:#f9f9f9;fill-opacity:1"
       id="path4833"
       sodipodi:sides="7"
       sodipodi:cx="560"
       sodipodi:cy="932.36215"
       sodipodi:r1="24.327696"
       sodipodi:r2="2.1894925"
       sodipodi:arg1="0.8685394"
       sodipodi:arg2="1.3173383"
       inkscape:flatsided="false"
       inkscape:rounded="0"
       inkscape:randomized="0"
       d="m 575.71429,950.93355 -15.16527,-16.45189 -5.27105,21.74548 3.40722,-22.11426 -20.28775,9.43701 19.41399,-11.12415 -20.02735,-9.97772 20.80163,8.24267 -4.68595,-21.87902 6.52522,21.4026 14.18407,-17.30498 -12.66482,18.44593 22.3732,0.30007 -22.318,1.5991 z"
       inkscape:transform-center-x="-1.0507507"
       inkscape:transform-center-y="0.1572838" />
    <path
       sodipodi:type="star"
       style="fill:#f9f9f9;fill-opacity:1"
       id="path4835"
       sodipodi:sides="7"
       sodipodi:cx="85.714287"
       sodipodi:cy="522.36215"
       sodipodi:r1="11.517511"
       sodipodi:r2="1.036576"
       sodipodi:arg1="0.51914611"
       sodipodi:arg2="0.96794506"
       inkscape:flatsided="false"
       inkscape:rounded="0"
       inkscape:randomized="0"
       d="m 95.714287,528.07641 -9.412268,-4.86044 1.179557,10.52727 -2.068412,-10.38924 -7.495103,7.48585 6.833,-8.09473 -10.525799,-1.19255 10.589025,0.29527 -5.630353,-8.97295 6.371297,8.46293 3.504863,-9.99653 -2.644147,10.25784 10.000847,-3.49252 -9.668495,4.32837 z"
       inkscape:transform-center-x="0.39325892"
       inkscape:transform-center-y="0.18014319" />
    <path
       sodipodi:type="star"
       style="fill:#f9f9f9;fill-opacity:1"
       id="path4837"
       sodipodi:sides="7"
       sodipodi:cx="131.42857"
       sodipodi:cy="946.64786"
       sodipodi:r1="10.101525"
       sodipodi:r2="0.90913731"
       sodipodi:arg1="-0.14189705"
       sodipodi:arg2="0.3069019"
       inkscape:flatsided="false"
       inkscape:rounded="0"
       inkscape:randomized="0"
       d="m 141.42857,945.21932 -9.13334,1.70322 6.48514,6.65296 -7.02618,-6.07879 -1.15807,9.21834 0.37183,-9.28335 -7.92923,4.84212 7.48985,-5.49736 -8.72952,-3.18031 8.96786,2.42825 -2.9563,-8.8079 3.69288,8.52534 5.04308,-7.80297 -4.36291,8.20268 z"
       inkscape:transform-center-x="-0.1852387"
       inkscape:transform-center-y="0.31788705" />
    <path
       sodipodi:type="star"
       style="fill:#f9f9f9;fill-opacity:1"
       id="path4839"
       sodipodi:sides="7"
       sodipodi:cx="780"
       sodipodi:cy="926.64786"
       sodipodi:r1="9.035079"
       sodipodi:r2="0.81315708"
       sodipodi:arg1="1.2490458"
       sodipodi:arg2="1.6978447"
       inkscape:flatsided="false"
       inkscape:rounded="0"
       inkscape:randomized="0"
       d="m 782.85714,935.21932 -2.96017,-7.76483 -4.81698,6.7714 4.22514,-7.15565 -8.29743,0.45583 8.22885,-1.15812 -5.52975,-6.20298 6.03606,5.71149 1.40195,-8.19083 -0.70201,8.28024 7.27795,-4.01081 -6.91144,4.61379 7.6735,3.18943 -7.91642,-2.52693 z"
       inkscape:transform-center-x="0.25474346"
       inkscape:transform-center-y="-0.19541478" />
    <path
       sodipodi:type="star"
       style="fill:#f9f9f9;fill-opacity:1"
       id="path4841"
       sodipodi:sides="7"
       sodipodi:cx="832.85712"
       sodipodi:cy="683.79072"
       sodipodi:r1="12.777531"
       sodipodi:r2="1.1499778"
       sodipodi:arg1="1.1071487"
       sodipodi:arg2="1.5559477"
       inkscape:flatsided="false"
       inkscape:rounded="0"
       inkscape:randomized="0"
       d="m 838.5714,695.21928 -5.69721,-10.27872 -5.38949,10.44336 4.48407,-10.86294 -11.52523,2.29765 11.28876,-3.26714 -8.98225,-7.57823 9.59278,6.78888 0.32456,-11.74755 0.67324,11.73273 9.38697,-7.07072 -8.75326,7.8416 11.38079,2.9305 -11.58838,-1.95442 z"
       inkscape:transform-center-x="-0.042217167"
       inkscape:transform-center-y="-0.59145825" />
    <path
       sodipodi:type="star"
       style="fill:#f9f9f9;fill-opacity:1"
       id="path4843"
       sodipodi:sides="7"
       sodipodi:cx="365.71429"
       sodipodi:cy="792.36215"
       sodipodi:r1="12.289036"
       sodipodi:r2="1.1060132"
       sodipodi:arg1="0.95054684"
       sodipodi:arg2="1.3993458"
       inkscape:flatsided="false"
       inkscape:rounded="0"
       inkscape:randomized="0"
       d="m 372.85715,802.36212 -6.95416,-8.9102 -3.55351,10.72961 2.63043,-10.9924 -10.60433,3.91155 10.23425,-4.79709 -9.66986,-5.85199 10.13147,5.01052 -1.4538,-11.20886 2.39949,11.04511 7.85701,-8.12523 -7.13936,8.76251 11.25133,1.07686 -11.30213,-0.11844 z"
       inkscape:transform-center-x="-0.46654952"
       inkscape:transform-center-y="-0.14472482" />
    <path
       sodipodi:type="star"
       style="fill:#f9f9f9;fill-opacity:1"
       id="path4845"
       sodipodi:sides="7"
       sodipodi:cx="85.714287"
       sodipodi:cy="802.36215"
       sodipodi:r1="14.285714"
       sodipodi:r2="1.2857143"
       sodipodi:arg1="0.64350111"
       sodipodi:arg2="1.0923001"
       inkscape:flatsided="false"
       inkscape:rounded="0"
       inkscape:randomized="0"
       d="m 97.142858,810.93355 -10.836571,-7.43011 -0.167815,13.1381 -0.947394,-13.10498 -10.376412,8.06027 9.65519,-8.91152 -12.77136,-3.08711 12.987219,1.99249 -5.549212,-11.90983 6.539607,11.39611 5.851605,-11.7642 -4.832462,12.21823 12.846044,-2.7599 -12.565589,3.83977 z"
       inkscape:transform-center-x="0.094390049"
       inkscape:transform-center-y="0.61502984" />
    <path
       sodipodi:type="star"
       style="fill:#f9f9f9;fill-opacity:1"
       id="path4847"
       sodipodi:sides="7"
       sodipodi:cx="330"
       sodipodi:cy="962.36215"
       sodipodi:r1="11.517511"
       sodipodi:r2="1.036576"
       sodipodi:arg1="1.0516502"
       sodipodi:arg2="1.5004492"
       inkscape:flatsided="false"
       inkscape:rounded="0"
       inkscape:randomized="0"
       d="m 335.71429,972.36212 -5.64143,-8.96599 -4.32838,9.6685 3.49252,-10.00085 -10.25783,2.64415 9.99653,-3.50486 -8.46293,-6.3713 8.97294,5.63035 -0.29527,-10.58902 1.19256,10.5258 8.09473,-6.833 -7.48586,7.4951 10.38924,2.06841 -10.52726,-1.17956 z"
       inkscape:transform-center-x="-0.18014319"
       inkscape:transform-center-y="-0.39325892" />
    <path
       sodipodi:type="star"
       style="fill:#f9f9f9;fill-opacity:1"
       id="path4849"
       sodipodi:sides="7"
       sodipodi:cx="498.57144"
       sodipodi:cy="553.79072"
       sodipodi:r1="13.552619"
       sodipodi:r2="1.2197357"
       sodipodi:arg1="0.32175055"
       sodipodi:arg2="0.7705495"
       inkscape:flatsided="false"
       inkscape:rounded="0"
       inkscape:randomized="0"
       d="m 511.42858,558.07642 -11.98194,-3.43613 3.79039,11.87464 -4.78414,-11.51026 -6.92069,10.36717 6.01621,-10.91693 -12.42036,1.05301 12.28625,-2.10292 -8.56724,-9.05409 9.30448,8.29462 1.73718,-12.34327 -0.68375,12.44615 10.73348,-6.33772 -10.1571,7.22547 z"
       inkscape:transform-center-x="0.29312216"
       inkscape:transform-center-y="-0.38211519" />
    <path
       sodipodi:type="star"
       style="fill:#f9f9f9;fill-opacity:1"
       id="path4851"
       sodipodi:sides="7"
       sodipodi:cx="11.428571"
       sodipodi:cy="660.93358"
       sodipodi:r1="10.879676"
       sodipodi:r2="0.97917086"
       sodipodi:arg1="0.40489179"
       sodipodi:arg2="0.85369074"
       inkscape:flatsided="false"
       inkscape:rounded="0"
       inkscape:randomized="0"
       d="m 21.428571,665.21931 -9.356483,-3.5477 2.240674,9.7524 -3.059966,-9.52715 -6.2276971,7.83235 5.5407671,-8.33246 -10.00648567,0.0144 9.96919067,-0.86326 -6.2501872,-7.81442 6.8906092,7.256 2.212631,-9.75881 -1.376741,9.91134 9.009292,-4.35461 -8.607377,5.10323 z"
       inkscape:transform-center-x="0.43459521"
       inkscape:transform-center-y="-0.10626315" />
    <path
       sodipodi:type="star"
       style="fill:#f9f9f9;fill-opacity:1"
       id="path4853"
       sodipodi:sides="7"
       sodipodi:cx="901.42859"
       sodipodi:cy="516.64786"
       sodipodi:r1="12.777531"
       sodipodi:r2="1.1499778"
       sodipodi:arg1="1.1071487"
       sodipodi:arg2="1.5559477"
       inkscape:flatsided="false"
       inkscape:rounded="0"
       inkscape:randomized="0"
       d="m 907.14287,528.07646 -5.69721,-10.27872 -5.38949,10.44335 4.48408,-10.86293 -11.52524,2.29765 11.28876,-3.26714 -8.98225,-7.57823 9.59278,6.78888 0.32457,-11.74755 0.67324,11.73273 9.38696,-7.07072 -8.75326,7.8416 11.38079,2.9305 -11.58838,-1.95442 z"
       inkscape:transform-center-x="-0.042217167"
       inkscape:transform-center-y="-0.59145825" />
    <path
       sodipodi:type="star"
       style="fill:#f9f9f9;fill-opacity:1"
       id="path4855"
       sodipodi:sides="7"
       sodipodi:cx="651.42859"
       sodipodi:cy="1036.6479"
       sodipodi:r1="7.1428571"
       sodipodi:r2="0.64285713"
       sodipodi:arg1="0.64350111"
       sodipodi:arg2="1.0923001"
       inkscape:flatsided="false"
       inkscape:rounded="0"
       inkscape:randomized="0"
       d="m 657.14287,1040.9337 -5.41828,-3.7151 -0.0839,6.5691 -0.4737,-6.5525 -5.1882,4.0301 4.82759,-4.4558 -6.38568,-1.5435 6.49361,0.9962 -2.7746,-5.9549 3.2698,5.6981 2.9258,-5.8821 -2.41623,6.1091 6.42302,-1.38 -6.28279,1.9199 z"
       inkscape:transform-center-x="0.047195024"
       inkscape:transform-center-y="0.30751492" />
    <path
       sodipodi:type="star"
       style="fill:#f9f9f9;fill-opacity:1"
       id="path4857"
       sodipodi:sides="7"
       sodipodi:cx="238.57143"
       sodipodi:cy="1012.3621"
       sodipodi:r1="9.035079"
       sodipodi:r2="0.81315708"
       sodipodi:arg1="0.32175055"
       sodipodi:arg2="0.7705495"
       inkscape:flatsided="false"
       inkscape:rounded="0"
       inkscape:randomized="0"
       d="m 247.14285,1015.2193 -7.98796,-2.2908 2.52693,7.9164 -3.18943,-7.6735 -4.61379,6.9115 4.01081,-7.278 -8.28024,0.702 8.19083,-1.4019 -5.7115,-6.0361 6.20299,5.5298 1.15812,-8.2289 -0.45583,8.2975 7.15565,-4.2252 -6.7714,4.817 z"
       inkscape:transform-center-x="0.19541478"
       inkscape:transform-center-y="-0.25474346" />
    <path
       sodipodi:type="star"
       style="fill:#f9f9f9;fill-opacity:1"
       id="path4859"
       sodipodi:sides="7"
       sodipodi:cx="582.85712"
       sodipodi:cy="706.64786"
       sodipodi:r1="8.3299313"
       sodipodi:r2="0.74969381"
       sodipodi:arg1="1.0303768"
       sodipodi:arg2="1.4791758"
       inkscape:flatsided="false"
       inkscape:rounded="0"
       inkscape:randomized="0"
       d="m 587.14283,713.79075 -4.21712,-6.39631 -2.981,7.05765 2.3715,-7.28511 -7.37653,2.06974 7.17434,-2.68808 -6.21737,-4.47674 6.57475,3.93313 -0.37641,-7.65214 1.02424,7.59262 5.748,-5.06532 -5.29754,5.5347 7.54404,1.33579 -7.63017,-0.69095 z"
       inkscape:transform-center-x="-0.1695889"
       inkscape:transform-center-y="-0.24539436" />
    <path
       sodipodi:type="star"
       style="fill:#f9f9f9;fill-opacity:1"
       id="path4861"
       sodipodi:sides="7"
       sodipodi:cx="398.57144"
       sodipodi:cy="476.64786"
       sodipodi:r1="8.3299313"
       sodipodi:r2="0.74969381"
       sodipodi:arg1="1.0303768"
       sodipodi:arg2="1.4791758"
       inkscape:flatsided="false"
       inkscape:rounded="0"
       inkscape:randomized="0"
       d="m 402.85716,483.79071 -4.21713,-6.3963 -2.981,7.05765 2.3715,-7.28511 -7.37652,2.06974 7.17434,-2.68808 -6.21737,-4.47674 6.57475,3.93313 -0.37641,-7.65214 1.02424,7.59262 5.74799,-5.06532 -5.29754,5.5347 7.54404,1.33579 -7.63017,-0.69095 z"
       inkscape:transform-center-x="-0.1695889"
       inkscape:transform-center-y="-0.24539436" />
    <path
       sodipodi:type="star"
       style="fill:#f9f9f9;fill-opacity:1"
       id="path4863"
       sodipodi:sides="7"
       sodipodi:cx="674.28571"
       sodipodi:cy="826.64786"
       sodipodi:r1="7.1428571"
       sodipodi:r2="0.64285713"
       sodipodi:arg1="0.64350111"
       sodipodi:arg2="1.0923001"
       inkscape:flatsided="false"
       inkscape:rounded="0"
       inkscape:randomized="0"
       d="m 679.99999,830.9336 -5.41828,-3.71506 -0.0839,6.56906 -0.4737,-6.55249 -5.18821,4.03013 4.8276,-4.45576 -6.38568,-1.54355 6.49361,0.99624 -2.77461,-5.95491 3.26981,5.69805 2.9258,-5.8821 -2.41623,6.10912 6.42302,-1.37995 -6.28279,1.91988 z"
       inkscape:transform-center-x="0.047195024"
       inkscape:transform-center-y="0.30751492" />
    <path
       sodipodi:type="star"
       style="fill:#f9f9f9;fill-opacity:1"
       id="path4865"
       sodipodi:sides="7"
       sodipodi:cx="347.14285"
       sodipodi:cy="630.93358"
       sodipodi:r1="5.890151"
       sodipodi:r2="0.53011358"
       sodipodi:arg1="0.24497866"
       sodipodi:arg2="0.69377761"
       inkscape:flatsided="false"
       inkscape:rounded="0"
       inkscape:randomized="0"
       d="m 352.85714,632.36217 -5.30672,-1.0896 2.03833,5.01933 -2.45681,-4.8283 -2.65339,4.72312 2.24313,-4.9312 -5.34705,0.87031 5.25394,-1.32081 -4.01428,-3.63786 4.30843,3.28419 0.34134,-5.40666 0.11858,5.41612 4.43991,-3.10413 -4.16056,3.46961 z"
       inkscape:transform-center-x="0.026970865"
       inkscape:transform-center-y="-0.26529775" />
  </g>
</svg>
